# xmcd CD database file generated by LOLA_Freedb v0.9beta0
# 
# Track frame offsets:
#      150
#      12725
#      28751
#      47181
#      62725
#      77886
#      93449
#      112675
#      130630
#      146406
#      159490
#      181931
#      198302
#      218248
# 
# Disc length: 3226 seconds
# 
# Revision: 0 
# Processed by: cddbd v1.5.2PL0 Copyright (c) Steve Scherf et al.
# Submitted via: LOLA_Freedb v0.9beta0
# 
DISCID=bc0c980e
DTITLE=Texas Heat - One Trick-Pony
DYEAR=2009
DGENRE=
TTITLE0=Texas Heat - Drawn To That Woman
TTITLE1=Texas Heat - Hous That's Built On Lies
TTITLE2=Texas Heat - All Alone And Blue
TTITLE3=Texas Heat - Piece Of Wood
TTITLE4=Texas Heat - Long Gone Tomorrow
TTITLE5=Texas Heat - Heart Will Recognize
TTITLE6=Texas Heat - Stars Over texas
TTITLE7=Texas Heat - Drivin' Down The Road
TTITLE8=Texas Heat - Story Of Your Life
TTITLE9=Texas Heat - Old Black Record
TTITLE10=Texas Heat - Good Night Sweetheart
TTITLE11=Texas Heat - Let 'er Roll
TTITLE12=Texas Heat - Me. Somewhere In Between
TTITLE13=Texas Heat - S.O.S. To Hank
EXTD=
EXTT0=
EXTT1=
EXTT2=
EXTT3=
EXTT4=
EXTT5=
EXTT6=
EXTT7=
EXTT8=
EXTT9=
EXTT10=
EXTT11=
EXTT12=
EXTT13=
PLAYORDER=
